<?xml version="1.0" standalone="no"?>
<!DOCTYPE svg PUBLIC "-//W3C//DTD SVG 20010904//EN"
 "http://www.w3.org/TR/2001/REC-SVG-20010904/DTD/svg10.dtd">
<svg version="1.0" xmlns="http://www.w3.org/2000/svg"
 width="300.000000pt" height="301.000000pt" viewBox="0 0 300.000000 301.000000"
 preserveAspectRatio="xMidYMid meet">
<metadata>
Created by potrace 1.10, written by Peter Selinger 2001-2011
</metadata>
<g transform="translate(0.000000,301.000000) scale(0.100000,-0.100000)"
fill="#000000" stroke="none">
<path d="M1884 2786 c-50 -22 -74 -61 -74 -121 0 -58 21 -95 70 -120 86 -45
190 21 190 120 0 98 -95 160 -186 121z m103 -45 c36 -23 47 -50 39 -95 -8 -43
-35 -66 -81 -70 -98 -10 -132 137 -41 174 32 13 48 12 83 -9z"/>
<path d="M1470 2625 c0 -3 18 -28 41 -57 57 -75 125 -219 150 -318 28 -111 23
-265 -11 -354 -67 -176 -205 -323 -405 -434 -47 -26 -53 -32 -30 -28 17 3 53
8 80 11 174 22 377 110 506 219 186 157 318 412 369 711 26 152 26 158 -6 113
-54 -75 -171 -105 -294 -73 -88 22 -254 104 -334 164 -36 28 -66 48 -66 46z
m265 -205 c77 -34 183 -60 248 -60 23 1 66 9 95 19 l54 18 -7 -51 c-10 -73
-57 -219 -101 -317 -111 -245 -318 -433 -551 -502 -29 -9 -53 -12 -53 -8 0 4
29 35 64 68 241 228 299 501 171 805 -37 87 -45 85 80 28z"/>
<path d="M1356 2516 c-69 -157 -225 -266 -380 -266 l-61 -1 30 -22 c170 -123
315 -361 315 -515 0 -34 3 -43 10 -32 5 8 10 47 10 86 0 115 -54 262 -135 368
-20 27 -35 49 -33 50 2 1 30 15 63 31 72 35 168 127 193 186 l19 43 26 -44
c57 -97 107 -274 107 -373 0 -67 -27 -177 -59 -242 -38 -76 -121 -168 -200
-220 -83 -55 -77 -63 10 -13 143 82 250 208 291 341 17 58 20 86 16 185 -5
102 -10 129 -41 215 -34 92 -133 287 -146 287 -3 0 -19 -29 -35 -64z m64 -46
c9 -17 7 -19 -20 -17 -34 2 -34 1 -18 26 13 22 23 19 38 -9z m-220 -194 c0 -2
-21 -16 -46 -31 -30 -18 -51 -39 -60 -61 l-15 -35 -24 30 c-14 16 -25 31 -25
34 0 3 24 11 53 17 28 7 63 21 77 31 24 18 40 24 40 15z"/>
<path d="M1331 2121 c-19 -12 -23 -41 -5 -34 8 3 14 0 14 -6 0 -6 -6 -11 -12
-11 -7 -1 -2 -7 12 -15 14 -8 32 -14 40 -14 9 0 7 4 -6 11 -17 8 -21 17 -19
44 4 36 -1 40 -24 25z"/>
<path d="M911 2058 l-75 -42 55 -11 c121 -25 237 -103 297 -199 24 -39 5 43
-25 103 -24 50 -149 191 -169 191 -5 0 -42 -19 -83 -42z m117 -47 c3 -9 -3 -8
-25 1 -37 16 -36 15 -28 28 8 13 46 -8 53 -29z"/>
<path d="M856 1885 l-36 -55 102 0 c109 0 168 -11 193 -36 13 -14 15 -14 15 0
0 22 -70 72 -157 112 -39 19 -74 34 -76 34 -2 0 -21 -25 -41 -55z"/>
<path d="M424 1290 c-70 -22 -120 -118 -94 -179 16 -39 40 -59 119 -101 52
-28 67 -40 69 -61 7 -60 -85 -70 -160 -17 l-27 19 -27 -46 c-26 -44 -26 -46
-8 -60 59 -45 200 -59 264 -27 78 39 105 140 54 202 -15 17 -62 49 -104 70
-84 42 -100 62 -74 91 21 23 74 25 115 3 17 -8 32 -14 34 -12 1 2 12 22 23 45
l21 41 -41 17 c-53 21 -124 27 -164 15z m36 -51 c-39 -16 -70 -50 -70 -77 0
-39 35 -77 104 -111 81 -40 110 -73 102 -119 -6 -42 -22 -61 -64 -79 -23 -9
-38 -11 -50 -4 -16 10 -16 10 1 11 27 0 77 54 77 83 0 36 -42 81 -102 110 -69
32 -90 57 -90 104 0 29 7 43 31 65 19 17 42 28 59 27 l27 0 -25 -10z m-70
-369 c10 -6 30 -11 44 -12 24 -2 27 -18 3 -18 -26 0 -87 21 -87 30 0 13 16 13
40 0z"/>
<path d="M2067 1283 c-26 -9 -67 -33 -91 -54 -143 -126 -97 -350 85 -414 59
-21 155 -19 207 5 l42 19 -22 46 c-16 33 -26 44 -38 39 -52 -23 -90 -27 -129
-16 -58 18 -96 54 -111 107 -12 42 -11 49 11 91 15 29 37 54 59 65 42 23 120
25 159 5 28 -15 28 -15 48 34 l21 49 -42 16 c-60 25 -142 28 -199 8z m168 -44
c5 -5 -15 -9 -53 -9 -91 0 -151 -31 -195 -102 -20 -33 -22 -106 -3 -151 30
-73 126 -124 214 -114 56 6 41 -12 -16 -20 -130 -17 -251 81 -252 205 0 91 74
177 175 203 35 9 116 2 130 -12z"/>
<path d="M700 1048 l0 -245 53 1 52 1 0 90 0 90 71 6 c43 3 82 12 98 23 88 57
87 195 -1 253 -21 14 -53 19 -150 22 l-123 3 0 -244z m93 196 c3 -4 0 -16 -8
-28 -9 -12 -15 -44 -15 -80 0 -48 4 -64 22 -83 l21 -23 -21 -23 c-16 -17 -22
-36 -22 -69 0 -51 -7 -78 -21 -78 -10 0 -12 373 -2 383 8 9 38 9 46 1z m167
-17 c24 -19 40 -54 40 -84 0 -36 -34 -91 -63 -102 -31 -12 -34 -5 -10 22 51
56 50 114 -4 157 l-26 20 24 0 c13 0 31 -6 39 -13z m-47 -48 c24 -29 21 -56
-8 -85 -20 -20 -34 -24 -62 -22 l-37 3 1 63 c1 34 2 65 2 68 2 15 87 -8 104
-27z"/>
<path d="M1090 1048 l0 -243 140 0 140 0 0 48 0 47 -85 0 -85 0 0 50 0 50 80
0 80 0 0 48 0 49 -80 -5 -80 -5 0 57 0 56 85 0 85 0 0 45 0 45 -140 0 -140 0
0 -242z m110 195 c0 -5 -9 -19 -20 -33 -29 -38 -27 -101 6 -133 l26 -26 -27
-33 c-23 -27 -26 -39 -22 -76 3 -27 14 -53 28 -68 l24 -25 -40 3 -40 3 -2 175
c-4 212 -2 220 37 220 17 0 30 -3 30 -7z"/>
<path d="M1440 1047 l0 -244 51 1 51 1 -1 153 c-1 83 2 152 6 152 4 0 23 -27
41 -58 18 -32 61 -100 95 -152 l62 -93 53 -2 52 -2 0 244 0 243 -52 0 -53 0 3
-150 c2 -82 0 -150 -5 -150 -4 0 -51 68 -103 150 l-95 150 -52 0 -53 0 0 -243z
m132 128 c52 -78 61 -106 22 -70 -33 30 -45 31 -70 4 -16 -18 -20 -40 -22
-135 -2 -63 -8 -114 -13 -114 -11 0 -13 373 -2 384 16 16 40 -3 85 -69z m238
-130 l0 -195 -24 0 c-22 0 -37 15 -71 72 -5 9 -26 43 -45 75 -44 73 -49 87
-17 45 13 -18 37 -43 52 -56 23 -20 31 -22 46 -13 29 18 39 62 39 168 0 59 4
99 10 99 6 0 10 -72 10 -195z"/>
<path d="M2310 1285 c0 -3 38 -63 85 -133 l85 -127 0 -110 0 -111 55 0 55 0 0
111 0 111 89 132 89 132 -64 0 -65 0 -52 -80 -51 -80 -51 80 -50 80 -62 0
c-35 0 -63 -2 -63 -5z m135 -87 c41 -64 66 -88 90 -88 24 0 49 24 90 88 15 23
34 42 41 42 16 0 9 -26 -16 -55 -9 -11 -35 -50 -58 -87 -40 -64 -42 -71 -42
-147 0 -76 -11 -109 -24 -75 -3 9 -6 47 -6 86 0 76 6 62 -118 256 -13 19 -12
22 1 22 8 0 27 -19 42 -42z"/>
<path d="M994 580 c0 -32 3 -49 10 -46 6 2 10 9 8 15 -1 6 9 16 24 21 37 15
30 54 -11 58 -30 3 -30 2 -31 -48z"/>
<path d="M1080 580 c0 -49 1 -50 31 -50 17 0 28 4 24 10 -3 6 -13 10 -21 10
-8 0 -14 5 -14 10 0 6 7 10 15 10 8 0 15 5 15 10 0 6 -7 10 -15 10 -24 0 -17
28 8 33 16 3 13 5 -10 6 l-33 1 0 -50z"/>
<path d="M1160 611 c-15 -28 -12 -46 8 -64 24 -22 45 -21 65 1 20 22 22 53 5
70 -19 19 -66 15 -78 -7z m60 -6 c16 -19 3 -55 -20 -55 -23 0 -36 36 -20 55 7
8 16 15 20 15 4 0 13 -7 20 -15z"/>
<path d="M1270 581 c0 -28 5 -51 10 -51 6 0 10 8 10 19 0 10 9 21 21 24 32 9
22 51 -13 55 -27 3 -28 2 -28 -47z"/>
<path d="M1350 580 c0 -49 1 -50 30 -50 17 0 30 5 30 10 0 6 -9 10 -20 10 -17
0 -20 7 -20 40 0 22 -4 40 -10 40 -5 0 -10 -22 -10 -50z"/>
<path d="M1423 583 c2 -44 4 -48 30 -51 33 -4 36 13 5 23 l-23 8 23 4 c27 5
29 23 2 23 -27 0 -25 14 3 28 21 10 20 11 -10 11 -32 1 -32 1 -30 -46z"/>
<path d="M1543 613 c-4 -11 1 -22 15 -31 27 -18 28 -34 2 -30 -10 2 -19 -1
-20 -7 0 -5 12 -10 28 -10 35 0 44 38 12 55 -23 12 -18 33 5 23 8 -3 15 0 15
6 0 18 -50 13 -57 -6z"/>
<path d="M1660 596 c0 -19 -3 -41 -6 -50 -3 -9 -2 -16 3 -16 6 0 14 15 20 33
l10 32 7 -32 c4 -18 11 -33 16 -33 4 0 11 15 16 33 l8 32 3 -33 c3 -18 9 -32
14 -30 6 2 10 7 10 11 -1 4 -1 25 -1 47 0 46 -25 57 -36 15 -3 -14 -10 -25
-15 -25 -5 0 -11 11 -15 25 -9 38 -34 32 -34 -9z"/>
<path d="M1792 618 c-7 -7 -12 -24 -12 -38 0 -32 17 -50 46 -50 28 0 47 23 47
56 0 40 -52 61 -81 32z m62 -23 c7 -20 -18 -49 -38 -42 -19 7 -22 53 -3 60 17
6 34 -2 41 -18z"/>
<path d="M1890 580 c0 -55 17 -69 22 -17 l4 32 19 -32 c11 -18 24 -32 28 -30
12 4 17 97 6 97 -5 0 -9 -11 -9 -25 0 -14 -5 -25 -10 -25 -6 0 -16 11 -22 25
-19 43 -38 31 -38 -25z"/>
<path d="M2000 580 c0 -47 2 -50 25 -50 14 0 25 5 25 10 0 6 -7 10 -15 10 -8
0 -15 5 -15 10 0 6 7 10 15 10 8 0 15 5 15 10 0 6 -7 10 -15 10 -21 0 -19 28
3 33 10 3 6 5 -10 6 -27 1 -28 -1 -28 -49z"/>
<path d="M2070 621 c0 -5 7 -14 15 -21 8 -7 15 -25 15 -41 0 -16 5 -29 10 -29
6 0 10 11 10 25 0 14 7 37 16 50 18 27 4 35 -17 9 -11 -14 -13 -14 -21 0 -10
17 -28 22 -28 7z"/>
</g>
</svg>
